<svg width="141" height="42" viewBox="0 0 141 42" fill="none" xmlns="http://www.w3.org/2000/svg">
<path d="M67.7695 31.9968H63.4942C63.475 31.9968 63.4635 31.993 63.4521 31.9796L59.7683 27.4834L56.0807 31.9796C56.0731 31.993 56.0597 31.9968 56.0405 31.9968H52.6172C52.5961 31.9968 52.5808 31.9873 52.5655 31.9643C52.5597 31.9509 52.5597 31.926 52.5731 31.9107L57.9992 25.2505L52.6363 18.6535C52.621 18.6305 52.621 18.6114 52.6267 18.5903C52.6363 18.5788 52.6574 18.5597 52.6746 18.5597H56.9519C56.9653 18.5597 56.9806 18.5674 56.9921 18.5865L60.224 22.5891L63.5133 18.5846C63.5229 18.5674 63.5382 18.5597 63.5535 18.5597H67.0401C67.0611 18.5597 67.0822 18.5788 67.0899 18.5903C67.0994 18.6114 67.0956 18.6343 67.0822 18.6535L61.9912 24.7626L67.8059 31.9107C67.8212 31.926 67.827 31.9509 67.8155 31.9643C67.8059 31.9873 67.7868 31.9968 67.7695 31.9968Z" fill="white"/>
<path d="M90.9095 20.9288C89.016 20.9288 87.7236 22.0768 87.3541 24.0724H93.7949V23.9442C93.7949 22.3466 92.6174 20.9288 90.9095 20.9288ZM97.1168 26.1196C97.1072 26.1349 97.0881 26.1445 97.0708 26.1445H87.2851C87.4881 28.4213 88.9681 29.7185 91.3633 29.7185C92.8376 29.7185 94.4037 29.2153 96.6171 28.0386C96.6573 28.0157 96.6975 28.0501 96.6975 28.0922L96.6936 31.0999C96.6898 31.1248 96.6783 31.1401 96.6611 31.1458C94.6029 32.0125 92.5351 32.6038 90.9095 32.6038C86.6954 32.6038 83.6416 29.5348 83.6416 25.3083C83.6416 21.0819 86.6954 18.0129 90.9095 18.0129C94.7541 18.0129 97.224 20.6016 97.224 24.1623C97.224 24.7382 97.1244 26.0775 97.1168 26.1196Z" fill="white"/>
<path d="M116.996 15.7859C115.795 15.7859 114.819 14.8254 114.819 13.643C114.819 12.4262 115.795 11.4408 116.996 11.4408C118.196 11.4408 119.174 12.4262 119.174 13.643C119.174 14.8254 118.196 15.7859 116.996 15.7859ZM115.238 31.9973C115.203 31.9973 115.182 31.9763 115.182 31.9418V18.6157C115.182 18.5889 115.202 18.5679 115.225 18.5621H118.759C118.788 18.5679 118.803 18.5889 118.803 18.6157V31.9418C118.803 31.9763 118.78 31.9973 118.751 31.9973H115.238Z" fill="white"/>
<path d="M74.2337 29.9902C73.5961 29.9902 72.9432 29.9003 72.1927 29.6994L72.2003 21.1508C73.0791 20.8714 73.8431 20.7394 74.5993 20.7394C77.0501 20.7394 78.6947 22.5456 78.6947 25.228C78.6947 28.1209 76.9429 29.9902 74.2337 29.9902ZM75.1948 18.0149C74.1973 18.0149 73.1902 18.1966 72.1333 18.5602H68.6161C68.5874 18.5602 68.5663 18.585 68.5663 18.6156V40.4694C69.629 40.3239 70.9309 39.9451 72.1946 39.0459L72.1927 32.3991C73.06 32.5215 73.7761 32.6038 74.4672 32.6038C79.2844 32.6038 82.4015 29.7185 82.4015 25.251C82.4015 20.992 79.4357 18.0149 75.1948 18.0149Z" fill="white"/>
<path d="M108.802 28.8836C107.701 29.4614 106.717 29.735 105.792 29.735C103.612 29.735 102.304 28.1948 102.304 25.6156C102.304 22.6309 103.973 20.7004 106.554 20.7004C107.267 20.7004 107.96 20.8745 108.802 21.2552V28.8836ZM108.802 11.5051V18.4809C107.77 18.1863 106.861 18.0505 105.944 18.0505C101.752 18.0505 98.5876 21.2074 98.5876 25.4014C98.5876 29.5762 101.379 32.603 105.22 32.603C106.551 32.603 107.795 32.2701 109.26 31.5163L109.258 32.7197C110.225 32.536 111.335 32.1496 112.43 31.3747V10.0777C111.354 10.2212 110.079 10.5809 108.802 11.5051Z" fill="white"/>
<path d="M131.048 28.8573C129.984 29.4714 129.071 29.7661 128.255 29.7661C125.919 29.7661 124.52 28.2316 124.52 25.6429C124.52 22.7022 126.168 20.7296 128.619 20.7296C129.275 20.7296 130.072 20.9802 131.048 21.4968V28.8573ZM134.68 18.3992C134.68 18.3169 134.61 18.2518 134.529 18.2518L131.673 18.2557C131.588 18.2557 131.518 18.3284 131.518 18.4087V18.8947H131.445C130.126 18.3169 129.002 18.0509 127.893 18.0509C123.941 18.0509 120.843 21.3246 120.843 25.5205C120.843 29.7623 123.616 32.6054 127.742 32.6054C128.847 32.6054 130.262 32.5289 131.586 31.0059V32.7202C132.523 32.5212 133.627 32.1233 134.677 31.3694L134.68 18.3992Z" fill="white"/>
<path d="M42.8383 28.6623L51.7107 28.6585C51.5767 29.6496 51.2416 30.809 50.4719 31.9915H42.8594H41.343H41.2415C40.1119 31.9915 39.1833 31.1171 39.0722 30.0112C39.0665 29.994 39.0608 29.9787 39.0588 29.9634V20.8828V12.4777C39.0608 12.4643 39.0665 12.4452 39.0722 12.4337C39.1833 11.3259 40.1119 10.4477 41.2415 10.4477C41.2779 10.4477 41.3124 10.4515 41.343 10.4515L51.6916 10.4496C51.5556 11.4388 51.2206 12.6289 50.4528 13.8074H42.8383V18.5677H50.3762C50.4068 18.5677 50.4298 18.5888 50.4298 18.6194V21.9218C50.4298 21.9485 50.4068 21.9734 50.3762 21.9734H42.8383V28.6585V28.6623Z" fill="white"/>
<path d="M31.7319 32.2691C30.855 32.2691 30.3132 31.5841 30.3132 30.7461C30.3132 29.8488 30.9335 29.2231 31.7319 29.2231C32.5227 29.2231 33.1411 29.8488 33.1411 30.7461C33.1411 31.6454 32.5227 32.2691 31.7319 32.2691ZM31.7319 29.0509C30.834 29.0509 30.0662 29.7263 30.0662 30.7461C30.0662 31.7104 30.7593 32.4355 31.7319 32.4355C32.6184 32.4355 33.39 31.764 33.39 30.7461C33.39 29.7263 32.6184 29.0509 31.7319 29.0509Z" fill="white"/>
<path d="M31.3339 30.6068V29.9888H31.7513C31.9619 29.9888 32.2108 30.0214 32.2108 30.2777C32.2108 30.582 31.981 30.6068 31.7187 30.6068H31.3339ZM32.519 30.3179C32.519 29.9142 32.2701 29.742 31.7876 29.742H31.0275V31.7452H31.3588V30.8881H31.6651L32.184 31.7452H32.5573L31.9944 30.8651C32.2988 30.8288 32.519 30.6814 32.519 30.3179Z" fill="white"/>
<path d="M137.598 20.7785C136.721 20.7785 136.175 20.0935 136.175 19.2555C136.175 18.3582 136.797 17.7325 137.598 17.7325C138.387 17.7325 139.007 18.3582 139.007 19.2555C139.007 20.1548 138.387 20.7785 137.598 20.7785ZM137.598 17.5603C136.7 17.5603 135.932 18.2357 135.932 19.2555C135.932 20.2198 136.623 20.9449 137.598 20.9449C138.482 20.9449 139.252 20.2715 139.252 19.2555C139.252 18.2357 138.482 17.5603 137.598 17.5603Z" fill="white"/>
<path d="M137.198 19.1152V18.4992H137.615C137.826 18.4992 138.075 18.5298 138.075 18.7862C138.075 19.0923 137.843 19.1152 137.585 19.1152H137.198ZM138.383 18.8263C138.383 18.4226 138.134 18.2504 137.652 18.2504H136.892V20.2537H137.219V19.3984H137.529L138.048 20.2537H138.419L137.858 19.3735C138.161 19.3391 138.383 19.1899 138.383 18.8263Z" fill="white"/>
<path d="M20.2873 13.7913L19.644 11.9718L14.1873 4.684L15.1676 4.44101L24.5761 12.5687L30.1132 10.9864C30.7642 10.818 31.5032 10.7817 32.0661 10.7855C30.3257 7.03545 27.1417 3.95695 22.9372 2.46074C14.6258 -0.49913 5.48724 3.84023 2.53105 12.1497C1.61586 14.7193 1.39759 17.3711 1.78243 19.8928L15.047 15.2875L20.2873 13.7913Z" fill="white"/>
<path d="M32.6486 12.2218C32.1623 12.5375 31.4482 12.9507 30.7397 13.1784L25.1911 14.7607L21.4883 26.6385L20.5271 26.9504L21.3083 17.8794L20.8717 15.9948L15.6716 17.4776L1.92841 20.7111C3.01592 25.9975 6.76093 30.6009 12.2195 32.5448C20.5329 35.5047 29.6675 31.1634 32.6237 22.8597C33.8989 19.2799 33.8166 15.5452 32.6486 12.2218Z" fill="white"/>
<path d="M20.8715 15.9961L21.31 17.8788L20.5269 26.9497L21.488 26.6378L25.1909 14.762L30.7395 13.1797C31.4479 12.952 32.1621 12.5349 32.6484 12.223C32.478 11.7351 32.2827 11.2549 32.0663 10.7861C31.5034 10.7823 30.7644 10.8206 30.1134 10.9851L24.5763 12.5713L15.1659 4.43973L14.1875 4.68463L19.6423 11.9724L20.2875 13.79L15.0453 15.2901L1.78265 19.8915C1.82478 20.1671 1.87264 20.4407 1.92817 20.7123L15.6733 17.4789L20.8715 15.9961Z" fill="#222831"/>
</svg>
